<?xml version="1.0" encoding="UTF-8"?>
<svg version="1.1" xmlns="http://www.w3.org/2000/svg" width="512" height="512">
<path d="M0 0 C2.72116892 2.95621313 3.3904158 5.00563826 3.51171875 8.984375 C3.54716797 9.91894531 3.58261719 10.85351562 3.61914062 11.81640625 C3.65297852 13.26853516 3.65297852 13.26853516 3.6875 14.75 C3.72166016 15.73355469 3.75582031 16.71710938 3.79101562 17.73046875 C3.87335273 20.15353199 3.94254838 22.57623998 4 25 C5.04800781 24.15115234 5.04800781 24.15115234 6.1171875 23.28515625 C7.02726562 22.55167969 7.93734375 21.81820312 8.875 21.0625 C9.77992187 20.33160156 10.68484375 19.60070312 11.6171875 18.84765625 C15.54691067 15.80051025 18.00324075 15.49185499 23 16 C25.9375 18.0625 25.9375 18.0625 28 21 C28.65595007 25.08146708 28.6484141 27.07182071 26.26171875 30.48828125 C24.06505067 32.92775892 21.89003559 34.74951209 19.25 36.6875 C14.09889048 40.73807573 9.14449682 45.17653243 6 51 C5.52003662 56.15201193 6.37663789 60.93805964 7.5625 65.9375 C7.81833862 67.02925537 7.81833862 67.02925537 8.0793457 68.14306641 C9.81070285 75.04027037 12.50527229 81.37862554 15.51171875 87.8046875 C17 91 17 91 18 94 C18.66 94 19.32 94 20 94 C19.93619141 92.07800781 19.93619141 92.07800781 19.87109375 90.1171875 C19.87821824 84.90409799 20.81013985 80.16827529 22.0625 75.125 C22.39749512 73.75807007 22.39749512 73.75807007 22.73925781 72.36352539 C27.79392313 52.50075382 36.39918159 33.67710757 45.75 15.5 C46.10239746 14.79987793 46.45479492 14.09975586 46.81787109 13.37841797 C49.31242313 8.65479131 51.91071015 4.98320007 57.24609375 3.28515625 C62.3466472 2.7669182 65.6536428 2.89545914 70 6 C73.01810245 9.74660994 73.92023543 13.21412565 74 18 C72.98276035 21.17173037 71.53525201 24.05030269 70 27 C69.2497495 28.52070977 68.4997335 30.04153527 67.75 31.5625 C66.88375 33.2640625 66.88375 33.2640625 66 35 C67.00160156 34.7834375 68.00320312 34.566875 69.03515625 34.34375 C70.37752737 34.06213368 71.71997971 33.78090434 73.0625 33.5 C73.71927734 33.35691406 74.37605469 33.21382812 75.05273438 33.06640625 C79.43139988 32.16047545 83.50418704 31.85968854 88 32 C88.14695313 31.00419922 88.14695313 31.00419922 88.296875 29.98828125 C89.20006579 24.65478393 89.97316523 20.90099618 94 17 C100.62126632 13.68936684 109.58585268 16.55896117 116.25 18.5625 C117.16096436 18.83280029 118.07192871 19.10310059 119.01049805 19.3815918 C133.63205228 23.88817337 144.54633681 29.51544651 152.125 43.3125 C157.78495831 55.47833431 160.94088608 68.60755995 163.375 81.75 C163.54273926 82.65411621 163.71047852 83.55823242 163.88330078 84.48974609 C164.79020683 89.73845261 165.16099214 94.6748753 165 100 C165.90505028 99.78806 165.90505028 99.78806 166.8283844 99.57183838 C173.03478613 98.21148813 178.87272698 97.7050756 185.21484375 97.734375 C186.15123184 97.73246155 187.08761993 97.7305481 188.05238342 97.72857666 C190.01791658 97.72722552 191.98345899 97.73084642 193.94897461 97.73925781 C196.92647735 97.74996038 199.9033752 97.73933192 202.88085938 97.7265625 C221.30888182 97.71498675 221.30888182 97.71498675 230 100 C230.08975098 99.29206299 230.17950195 98.58412598 230.27197266 97.85473633 C237.28345893 43.80167806 237.28345893 43.80167806 252.875 30.4375 C261.26058363 24.76489931 270.09599322 21.41392686 279.75 18.5625 C280.61254395 18.30331787 281.47508789 18.04413574 282.36376953 17.77709961 C289.09579586 15.90680675 296.52549036 14.26274518 303 17.5 C306.52878783 21.91098479 307 26.46103868 307 32 C307.76183594 32.04898438 308.52367187 32.09796875 309.30859375 32.1484375 C315.72970616 32.61338696 321.75441373 33.43860343 328 35 C327.50628906 34.04738281 327.01257813 33.09476563 326.50390625 32.11328125 C325.85644963 30.84651829 325.20933206 29.57958199 324.5625 28.3125 C324.07426758 27.37374023 324.07426758 27.37374023 323.57617188 26.41601562 C321.05738018 21.456333 319.6406407 18.01241208 320.625 12.5 C322.21094705 8.46304388 323.51150866 6.57845012 327 4 C331.15443571 2.58609541 334.38306513 2.85108469 338.625 3.875 C346.34562357 8.73613336 350.00842067 18.56014276 353.8125 26.5625 C354.32949463 27.64950195 354.84648926 28.73650391 355.37915039 29.85644531 C362.27398136 44.59748539 368.19560817 59.60798596 372.0625 75.4375 C372.36885376 76.68805176 372.36885376 76.68805176 372.68139648 77.96386719 C373.90644014 83.41218943 374.17321602 88.41797421 374 94 C374.66 94 375.32 94 376 94 C376.40605469 92.95585937 376.40605469 92.95585937 376.8203125 91.890625 C377.62320477 89.92327308 378.47447587 87.97513212 379.3671875 86.046875 C382.36382486 79.49464202 384.71328648 73.0820461 386.375 66.0625 C386.62612549 65.01690918 386.62612549 65.01690918 386.88232422 63.95019531 C388.67287685 56.07573213 388.67287685 56.07573213 386.70703125 48.515625 C381.55468815 42.35406006 375.88668167 37.27851274 369.66015625 32.25 C366.40694386 29.49838423 366.10134659 28.89522817 365.625 24.6875 C366 21 366 21 368.0625 18.0625 C371.77868002 15.45326722 373.53943474 15.29570022 378 16 C382.44328782 18.44834227 386.12292416 21.75745252 390 25 C390.01458252 24.38479492 390.02916504 23.76958984 390.04418945 23.13574219 C390.11880577 20.33987146 390.2154198 17.54517713 390.3125 14.75 C390.33505859 13.78191406 390.35761719 12.81382813 390.38085938 11.81640625 C390.41630859 10.88183594 390.45175781 9.94726562 390.48828125 8.984375 C390.51446533 8.12553711 390.54064941 7.26669922 390.56762695 6.38183594 C391.08454748 3.5342489 392.06256405 2.12159833 394 0 C396.64839143 -1.06378903 399.16390399 -1.24878035 402 -1 C404.85993478 0.76464061 406.49782849 1.99565697 408 5 C411.23437407 27.72047959 408.49851525 51.65737425 404 74 C415.38684778 56.46129679 422.96777605 38.27515443 426.5625 17.625 C427.61681083 11.94651886 428.52872482 8.72606265 433 5 C436.67660234 2.92601919 439.8159556 2.48766803 444 3 C447.89618397 5.1390814 450.64569785 7.23447351 453 11 C457.73393327 33.99902579 441.44347475 65.99100216 429.1875 84.75 C424.43851729 91.80355492 418.92782781 97.92846728 413 104 C412.00226563 105.09054688 412.00226563 105.09054688 410.984375 106.203125 C398.7041243 119.30893877 381.69358213 127.98946626 365 134 C363.78957031 134.4434375 362.57914062 134.886875 361.33203125 135.34375 C342.61755804 141.70473157 322.34192451 144.20407349 302.625 144.1875 C301.69598877 144.18741943 300.76697754 144.18733887 299.80981445 144.18725586 C289.48298045 144.10487705 279.257558 143.13019119 269 142 C267.69603271 141.85667236 267.69603271 141.85667236 266.36572266 141.71044922 C264.24358887 141.47566876 262.12175999 141.23813484 260 141 C260.56847656 141.3403125 261.13695312 141.680625 261.72265625 142.03125 C270.20961531 147.3586233 276.25458773 153.16259905 279.3359375 162.90234375 C281.7138638 173.99467055 279.76790459 183.51560615 276.2890625 194.02734375 C273.44907592 202.74933291 272.57758863 210.82081113 272.1668396 219.93374634 C271.52740301 233.74568887 270.59368592 247.3959187 268 261 C267.85788086 261.75700195 267.71576172 262.51400391 267.56933594 263.29394531 C264.65963915 278.14408246 259.80532944 292.49385232 255.10180664 306.85131836 C254.84035355 307.65759674 254.57890045 308.46387512 254.30952454 309.29458618 C253.81755196 310.81049679 253.31983116 312.32455967 252.81510925 313.83627319 C250.83864914 319.94717195 248.79458633 326.37964615 251.36328125 332.5859375 C251.67257568 333.36614258 251.98187012 334.14634766 252.30053711 334.95019531 C252.63448486 335.75038086 252.96843262 336.55056641 253.3125 337.375 C253.97089538 339.0632596 254.62461223 340.75335188 255.2734375 342.4453125 C255.57991211 343.24098633 255.88638672 344.03666016 256.20214844 344.85644531 C260.37848888 356.0768459 260.96095565 369.53211174 256.26171875 380.62890625 C252.49552502 387.70655205 247.31604504 392.36429383 239.5625 394.75 C239.046875 394.8325 238.53125 394.915 238 395 C237.9071875 396.2684375 237.9071875 396.2684375 237.8125 397.5625 C236.57810967 402.78492064 234.42457911 406.36102579 229.91992188 409.40609741 C223.295958 412.92025445 217.87616771 413.73855294 210.4375 413.6640625 C208.82959595 413.67123795 208.82959595 413.67123795 207.18920898 413.67855835 C204.93699667 413.68194036 202.68473411 413.67285799 200.43261719 413.65185547 C197.00863951 413.62506759 193.58793966 413.65166376 190.1640625 413.68359375 C187.96353452 413.68028935 185.76300855 413.67388251 183.5625 413.6640625 C182.55179443 413.67418365 181.54108887 413.68430481 180.49975586 413.69473267 C172.8763223 413.57060997 165.7673128 411.83934972 160.25878906 406.22549438 C157.46794207 402.71289218 156.3312657 399.52729787 156 395 C155.030625 394.835 154.06125 394.67 153.0625 394.5 C146.90393113 392.71000946 141.82569511 388.0561636 138.57421875 382.61328125 C132.39979909 369.02955801 134.47654367 354.75285132 139 341 C140.2771194 337.61726164 141.60107896 334.27885214 143.046875 330.96484375 C145.37895408 323.71054858 143.19829844 317.61360098 140.859375 310.703125 C140.53592102 309.71487732 140.21246704 308.72662964 139.87921143 307.70843506 C138.84587873 304.55231606 137.79960344 301.40074241 136.75 298.25 C128.68615318 274.04330905 123.31564437 250.87699038 122.28027344 225.30609131 C121.73637345 212.51907425 120.45865531 201.08981537 116 189 C112.89635032 178.7605317 112.32768777 167.57606096 116.5390625 157.5703125 C120.84272889 149.99862136 126.43590548 145.04462545 134 141 C132.76419189 141.13631836 132.76419189 141.13631836 131.50341797 141.27539062 C93.42331657 145.40589808 54.64902051 146.23698341 19 130 C17.30037109 129.24976563 17.30037109 129.24976563 15.56640625 128.484375 C-15.54684241 113.9342519 -38.38989125 87.1379586 -50.5859375 55.28515625 C-62.97903446 19.3241401 -62.97903446 19.3241401 -58.0234375 8.95703125 C-55.7627788 6.14854421 -53.30907771 4.33470235 -50 3 C-45.35149846 2.67037898 -41.71176596 3.61775532 -37.625 5.8125 C-33.50634989 9.81831038 -33.1175155 15.60057564 -32 21 C-27.50439358 40.13216409 -21.13797164 57.63350455 -10 74 C-10.19335938 73.03964844 -10.38671875 72.07929687 -10.5859375 71.08984375 C-14.03229751 53.25299141 -15.58583986 35.1610357 -15 17 C-14.95552734 15.25009766 -14.95552734 15.25009766 -14.91015625 13.46484375 C-14.6791693 8.8282032 -14.50117926 5.82452071 -12.0625 1.8125 C-8.31309489 -1.48243177 -4.68187794 -1.52972249 0 0 Z M305 49 C304.78085937 50.12535156 304.56171875 51.25070313 304.3359375 52.41015625 C300.14468317 73.04976538 292.00851926 90.31991736 279 107 C277.3077311 109.31656299 275.65235388 111.65472353 274 114 C278.6312149 118.6312149 297.8076034 116.15962714 303.875 116.1875 C325.6972764 116.71164095 325.6972764 116.71164095 346 110 C350.29474786 104.44825277 349.62582626 98.70528133 349 92 C346.9487039 79.37235034 344.39352291 66.07104327 333.5859375 58.25390625 C324.42042343 52.04459319 315.96576124 49.6766108 305 49 Z M62 57 C61.33097656 57.391875 60.66195312 57.78375 59.97265625 58.1875 C52.63619787 62.90268678 50.40103517 70.02605009 48.3125 78.125 C48.10044922 78.91003906 47.88839844 79.69507813 47.66992188 80.50390625 C46.04965921 86.56583534 44.83846229 92.18969007 44.75 98.5 C44.72421875 99.6034375 44.6984375 100.706875 44.671875 101.84375 C45.04379207 105.42123799 45.76932277 107.19445662 48 110 C65.57064732 120.8101938 99.40736298 118.1324578 119 115 C119.99 114.34 120.98 113.68 122 113 C121.52691406 112.51273438 121.05382812 112.02546875 120.56640625 111.5234375 C105.70489754 95.59004609 97.71931285 76.7194487 92 56 C91.33759329 53.66542671 90.66874757 51.33276735 90 49 C79.99874764 49 70.53079018 51.87236941 62 57 Z " fill="#96816F" transform="translate(59,50)"/>
<path d="M0 0 C2.72116892 2.95621313 3.3904158 5.00563826 3.51171875 8.984375 C3.54716797 9.91894531 3.58261719 10.85351562 3.61914062 11.81640625 C3.65297852 13.26853516 3.65297852 13.26853516 3.6875 14.75 C3.72166016 15.73355469 3.75582031 16.71710938 3.79101562 17.73046875 C3.87335273 20.15353199 3.94254838 22.57623998 4 25 C5.04800781 24.15115234 5.04800781 24.15115234 6.1171875 23.28515625 C7.02726562 22.55167969 7.93734375 21.81820312 8.875 21.0625 C9.77992187 20.33160156 10.68484375 19.60070312 11.6171875 18.84765625 C15.54691067 15.80051025 18.00324075 15.49185499 23 16 C25.9375 18.0625 25.9375 18.0625 28 21 C28.65595007 25.08146708 28.6484141 27.07182071 26.26171875 30.48828125 C24.06505067 32.92775892 21.89003559 34.74951209 19.25 36.6875 C14.09889048 40.73807573 9.14449682 45.17653243 6 51 C5.52003662 56.15201193 6.37663789 60.93805964 7.5625 65.9375 C7.81833862 67.02925537 7.81833862 67.02925537 8.0793457 68.14306641 C9.81070285 75.04027037 12.50527229 81.37862554 15.51171875 87.8046875 C17 91 17 91 18 94 C18.66 94 19.32 94 20 94 C19.93619141 92.07800781 19.93619141 92.07800781 19.87109375 90.1171875 C19.87821824 84.90409799 20.81013985 80.16827529 22.0625 75.125 C22.39749512 73.75807007 22.39749512 73.75807007 22.73925781 72.36352539 C27.79392313 52.50075382 36.39918159 33.67710757 45.75 15.5 C46.10239746 14.79987793 46.45479492 14.09975586 46.81787109 13.37841797 C49.31242313 8.65479131 51.91071015 4.98320007 57.24609375 3.28515625 C62.3466472 2.7669182 65.6536428 2.89545914 70 6 C73.01810245 9.74660994 73.92023543 13.21412565 74 18 C72.7232748 22.55013342 70.20670188 26.62221126 67.97265625 30.7578125 C56.98014511 51.11600064 45.94885666 75.02734086 45.8125 98.5625 C45.79832031 99.67753906 45.78414063 100.79257813 45.76953125 101.94140625 C45.9977012 104.96949224 46.21229862 106.57070028 48 109 C70.35108058 122.3322235 108.66235766 114.96736094 133 113 C135.44913597 112.81012712 137.89835241 112.62128875 140.34765625 112.43359375 C141.97392944 112.3087561 141.97392944 112.3087561 143.63305664 112.18139648 C144.41414795 112.12153564 145.19523926 112.0616748 146 112 C145.53702515 113.14529175 145.53702515 113.14529175 145.06469727 114.3137207 C143.90387703 117.2425226 142.89863871 120.18713925 141.9375 123.1875 C141.59589844 124.23292969 141.25429687 125.27835937 140.90234375 126.35546875 C139.78111999 130.88404784 139.35901893 135.35719284 139 140 C113.93305508 143.61941897 113.93305508 143.61941897 103 144 C102.23880859 144.02723145 101.47761719 144.05446289 100.69335938 144.08251953 C72.91343408 144.9378658 44.46977434 141.60066385 19 130 C17.30037109 129.24976563 17.30037109 129.24976563 15.56640625 128.484375 C-15.54684241 113.9342519 -38.38989125 87.1379586 -50.5859375 55.28515625 C-62.97903446 19.3241401 -62.97903446 19.3241401 -58.0234375 8.95703125 C-55.7627788 6.14854421 -53.30907771 4.33470235 -50 3 C-45.35149846 2.67037898 -41.71176596 3.61775532 -37.625 5.8125 C-33.50634989 9.81831038 -33.1175155 15.60057564 -32 21 C-27.50439358 40.13216409 -21.13797164 57.63350455 -10 74 C-10.19335938 73.03964844 -10.38671875 72.07929687 -10.5859375 71.08984375 C-14.03229751 53.25299141 -15.58583986 35.1610357 -15 17 C-14.95552734 15.25009766 -14.95552734 15.25009766 -14.91015625 13.46484375 C-14.6791693 8.8282032 -14.50117926 5.82452071 -12.0625 1.8125 C-8.31309489 -1.48243177 -4.68187794 -1.52972249 0 0 Z " fill="#6E5550" transform="translate(59,50)"/>
<path d="M0 0 C2.82448106 2.15552502 3.79278688 3.92003334 4.4609375 7.40234375 C4.78634237 10.60802147 4.9181326 13.77869577 5 17 C5.03996094 18.23878906 5.07992187 19.47757813 5.12109375 20.75390625 C5.50502554 38.64732159 3.52806205 56.47729184 0 74 C11.38684778 56.46129679 18.96777605 38.27515443 22.5625 17.625 C23.61681083 11.94651886 24.52872482 8.72606265 29 5 C32.67660234 2.92601919 35.8159556 2.48766803 40 3 C43.89618397 5.1390814 46.64569785 7.23447351 49 11 C53.73393327 33.99902579 37.44347475 65.99100216 25.1875 84.75 C20.43851729 91.80355492 14.92782781 97.92846728 9 104 C8.00226563 105.09054688 8.00226563 105.09054688 6.984375 106.203125 C-5.2958757 119.30893877 -22.30641787 127.98946626 -39 134 C-40.21042969 134.4434375 -41.42085938 134.886875 -42.66796875 135.34375 C-61.38163511 141.70445732 -81.65869561 144.20590581 -101.375 144.1875 C-102.30763672 144.18669434 -103.24027344 144.18588867 -104.20117188 144.18505859 C-119.2187377 144.05681079 -134.18170486 142.37699615 -149 140 C-149.14695312 138.54980469 -149.14695312 138.54980469 -149.296875 137.0703125 C-150.21499642 129.07632427 -151.59849896 122.36255637 -155 115 C-155.33 114.01 -155.66 113.02 -156 112 C-154.87432617 112.09087891 -153.74865234 112.18175781 -152.58886719 112.27539062 C-104.05015916 119.06675778 -104.05015916 119.06675778 -58 109 C-54.28405532 103.76546492 -55.36989783 96.05426316 -56.3046875 90.03955078 C-57.27517387 84.95811385 -58.59917022 79.97752987 -60 75 C-60.32145996 73.85023682 -60.32145996 73.85023682 -60.64941406 72.67724609 C-64.88665999 57.81604658 -70.49938721 43.69266846 -78.375 30.375 C-82.01862712 24.15644742 -84.56040934 19.67379457 -83.4375 12.3125 C-81.76370244 8.45548823 -80.38788453 6.50408856 -77 4 C-72.84556429 2.58609541 -69.61693487 2.85108469 -65.375 3.875 C-57.65437643 8.73613336 -53.99157933 18.56014276 -50.1875 26.5625 C-49.41200806 28.19300293 -49.41200806 28.19300293 -48.62084961 29.85644531 C-41.72601864 44.59748539 -35.80439183 59.60798596 -31.9375 75.4375 C-31.73326416 76.27120117 -31.52902832 77.10490234 -31.31860352 77.96386719 C-30.09355986 83.41218943 -29.82678398 88.41797421 -30 94 C-29.34 94 -28.68 94 -28 94 C-27.72929687 93.30390625 -27.45859375 92.6078125 -27.1796875 91.890625 C-26.37679523 89.92327308 -25.52552413 87.97513212 -24.6328125 86.046875 C-21.63617514 79.49464202 -19.28671352 73.0820461 -17.625 66.0625 C-17.37387451 65.01690918 -17.37387451 65.01690918 -17.11767578 63.95019531 C-15.32712315 56.07573213 -15.32712315 56.07573213 -17.29296875 48.515625 C-22.44531185 42.35406006 -28.11331833 37.27851274 -34.33984375 32.25 C-37.59305614 29.49838423 -37.89865341 28.89522817 -38.375 24.6875 C-38 21 -38 21 -35.9375 18.0625 C-32.22131998 15.45326722 -30.46056526 15.29570022 -26 16 C-21.55671218 18.44834227 -17.87707584 21.75745252 -14 25 C-13.98541748 24.38479492 -13.97083496 23.76958984 -13.95581055 23.13574219 C-13.88119423 20.33987146 -13.7845802 17.54517713 -13.6875 14.75 C-13.65366211 13.29787109 -13.65366211 13.29787109 -13.61914062 11.81640625 C-13.58369141 10.88183594 -13.54824219 9.94726562 -13.51171875 8.984375 C-13.48553467 8.12553711 -13.45935059 7.26669922 -13.43237305 6.38183594 C-12.9105613 3.50730439 -11.99684712 2.11198755 -10 0 C-6.16652698 -1.27782434 -3.91272241 -0.96101954 0 0 Z " fill="#6E5550" transform="translate(463,50)"/>
<path d="M0 0 C3.52878783 4.41098479 4 8.96103868 4 14.5 C4.75023437 14.53738281 5.50046875 14.57476562 6.2734375 14.61328125 C22.97051 15.68576324 22.97051 15.68576324 27.484375 19.87890625 C28.95313494 22.01051564 29.95278664 24.12631639 31 26.5 C31.29567871 27.15000977 31.59135742 27.80001953 31.89599609 28.46972656 C32.91216369 30.72042009 33.89948823 32.98140146 34.875 35.25 C35.19815186 35.99523926 35.52130371 36.74047852 35.85424805 37.50830078 C36.14726807 38.22228027 36.44028809 38.93625977 36.7421875 39.671875 C37.14219971 40.6323877 37.14219971 40.6323877 37.55029297 41.61230469 C38.09236449 43.88771023 37.72223153 45.30222202 37 47.5 C36.67 46.51 36.34 45.52 36 44.5 C34.18281174 43.43452295 34.18281174 43.43452295 32 42.5 C30.45463027 41.52668819 28.91322515 40.5470643 27.375 39.5625 C19.46845883 34.79770759 10.99674934 33.12707169 2 31.5 C1.99742187 32.08523437 1.99484375 32.67046875 1.9921875 33.2734375 C1.11822949 52.67530529 -8.9782344 72.07555244 -20.97265625 86.9609375 C-22.99922155 89.38295985 -22.99922155 89.38295985 -24.37109375 91.7890625 C-25.78579295 94.00145813 -26.72112776 95.17517943 -29 96.5 C-34.0775441 97.25558692 -38.90288024 96.95546552 -44 96.5 C-45.09828125 96.43683594 -46.1965625 96.37367188 -47.328125 96.30859375 C-54.25679385 95.60684396 -57.95834439 93.59814177 -62.671875 88.47265625 C-65.87126228 85.76176602 -69.03047802 84.82455807 -73 83.5 C-66.84530323 27.18030899 -66.84530323 27.18030899 -47.65234375 11.30859375 C-36.87021058 3.95641753 -12.76579776 -6.38289888 0 0 Z " fill="#867263" transform="translate(362,67.5)"/>
<path d="M0 0 C1.36644653 0.40545044 1.36644653 0.40545044 2.76049805 0.8190918 C17.38205228 5.32567337 28.29633681 10.95294651 35.875 24.75 C41.52506961 36.89457898 44.68388239 50.00705257 47.125 63.125 C47.37660889 64.46860596 47.37660889 64.46860596 47.63330078 65.83935547 C48.60634911 71.44986604 48.89997122 76.74436165 48.75 82.4375 C48.10933594 82.66824219 47.46867187 82.89898437 46.80859375 83.13671875 C37.3892463 86.47243458 37.3892463 86.47243458 30.75 93.4375 C26.13911459 94.48956118 21.44687576 94.92264082 16.75 95.4375 C15.74066406 95.59476562 14.73132813 95.75203125 13.69140625 95.9140625 C9.4574235 96.33445795 6.87679116 96.26815927 3.38671875 93.6953125 C0.90465501 91.08035761 -1.17173028 88.38418957 -3.25 85.4375 C-3.62898438 84.9022168 -4.00796875 84.36693359 -4.3984375 83.81542969 C-15.36448603 68.11153301 -23.5811606 50.55383802 -26.25 31.4375 C-38.17534997 31.90700197 -47.77226616 34.71678591 -57.2890625 42.046875 C-59.25 43.4375 -59.25 43.4375 -61.25 43.4375 C-61.58 44.4275 -61.91 45.4175 -62.25 46.4375 C-63.6372197 42.71700616 -62.84442503 40.69652084 -61.30078125 37.12109375 C-60.64625977 35.60418945 -60.64625977 35.60418945 -59.97851562 34.05664062 C-59.51123047 33.00669922 -59.04394531 31.95675781 -58.5625 30.875 C-57.89057617 29.29428711 -57.89057617 29.29428711 -57.20507812 27.68164062 C-56.76228516 26.67166016 -56.31949219 25.66167969 -55.86328125 24.62109375 C-55.45891846 23.69868896 -55.05455566 22.77628418 -54.63793945 21.82592773 C-52.43651104 18.03761215 -50.19761225 16.71797476 -46.04296875 15.48828125 C-44.25826172 15.12283203 -44.25826172 15.12283203 -42.4375 14.75 C-41.25542969 14.49863281 -40.07335937 14.24726562 -38.85546875 13.98828125 C-35.25906911 13.43888542 -31.88178914 13.33984626 -28.25 13.4375 C-28.15203125 12.77363281 -28.0540625 12.10976562 -27.953125 11.42578125 C-27.04993421 6.09228393 -26.27683477 2.33849618 -22.25 -1.5625 C-15.62873368 -4.87313316 -6.66414732 -2.00353883 0 0 Z " fill="#867263" transform="translate(175.25,68.5625)"/>
<path d="M0 0 C2.82448106 2.15552502 3.79278688 3.92003334 4.4609375 7.40234375 C4.78634237 10.60802147 4.9181326 13.77869577 5 17 C5.05994141 18.85818359 5.05994141 18.85818359 5.12109375 20.75390625 C5.45905844 36.41165684 4.21490227 52.20671367 1.125 67.5625 C0.90118652 68.71274658 0.90118652 68.71274658 0.67285156 69.88623047 C-2.27508069 83.34483731 -14.54984647 92.48813185 -25.56640625 99.63671875 C-28 101 -28 101 -30 101 C-29.49715629 95.71008417 -28.21351825 91.96967712 -25.6875 87.3125 C-20.81298333 78.00422756 -17.56821077 68.41219013 -16 58 C-15.79375 56.845 -15.5875 55.69 -15.375 54.5 C-17.11378695 44.7627931 -27.03061981 38.15289499 -34.33984375 32.25 C-37.59305614 29.49838423 -37.89865341 28.89522817 -38.375 24.6875 C-38 21 -38 21 -35.9375 18.0625 C-32.22131998 15.45326722 -30.46056526 15.29570022 -26 16 C-21.55671218 18.44834227 -17.87707584 21.75745252 -14 25 C-13.98541748 24.38479492 -13.97083496 23.76958984 -13.95581055 23.13574219 C-13.88119423 20.33987146 -13.7845802 17.54517713 -13.6875 14.75 C-13.66494141 13.78191406 -13.64238281 12.81382813 -13.61914062 11.81640625 C-13.58369141 10.88183594 -13.54824219 9.94726562 -13.51171875 8.984375 C-13.48553467 8.12553711 -13.45935059 7.26669922 -13.43237305 6.38183594 C-12.9105613 3.50730439 -11.99684712 2.11198755 -10 0 C-6.16652698 -1.27782434 -3.91272241 -0.96101954 0 0 Z " fill="#867263" transform="translate(463,50)"/>
<path d="M0 0 C2.72116892 2.95621313 3.3904158 5.00563826 3.51171875 8.984375 C3.56489258 10.38623047 3.56489258 10.38623047 3.61914062 11.81640625 C3.64169922 12.78449219 3.66425781 13.75257812 3.6875 14.75 C3.73874023 16.22533203 3.73874023 16.22533203 3.79101562 17.73046875 C3.87335273 20.15353199 3.94254838 22.57623998 4 25 C4.69867188 24.43410156 5.39734375 23.86820313 6.1171875 23.28515625 C7.02726562 22.55167969 7.93734375 21.81820312 8.875 21.0625 C9.77992187 20.33160156 10.68484375 19.60070312 11.6171875 18.84765625 C15.54691067 15.80051025 18.00324075 15.49185499 23 16 C25.9375 18.0625 25.9375 18.0625 28 21 C28.65595007 25.08146708 28.6484141 27.07182071 26.26171875 30.48828125 C24.06505067 32.92775892 21.89003559 34.74951209 19.25 36.6875 C14.09889048 40.73807573 9.14449682 45.17653243 6 51 C5.52006622 56.1516943 6.37583506 60.93843292 7.5625 65.9375 C7.73450928 66.66678711 7.90651855 67.39607422 8.08374023 68.14746094 C10.33765333 77.08622078 13.87759929 85.90819518 18.703125 93.77734375 C20.2243206 96.38445309 20.25449418 98.03090122 20 101 C9.39029844 97.17822578 -2.12743084 87.61338932 -8.25 78.046875 C-9.08976738 76.03493231 -9.56097711 74.13706182 -10 72 C-10.24878906 71.00355469 -10.49757813 70.00710937 -10.75390625 68.98046875 C-14.61940218 52.04324744 -15.55898679 34.32859061 -15 17 C-14.97035156 15.83339844 -14.94070312 14.66679688 -14.91015625 13.46484375 C-14.6791693 8.8282032 -14.50117926 5.82452071 -12.0625 1.8125 C-8.31309489 -1.48243177 -4.68187794 -1.52972249 0 0 Z " fill="#867263" transform="translate(59,50)"/>
<path d="M0 0 C6.14957166 1.42104967 12.61718811 0.88292154 18.890625 0.66796875 C18.11740416 6.33559783 16.8680394 9.59334879 12.890625 13.66796875 C5.92454825 18.37691808 -0.41253649 19.41473985 -8.671875 19.33203125 C-10.27977905 19.3392067 -10.27977905 19.3392067 -11.92016602 19.3465271 C-14.17237833 19.34990911 -16.42464089 19.34082674 -18.67675781 19.31982422 C-22.10073549 19.29303634 -25.52143534 19.31963251 -28.9453125 19.3515625 C-31.14584048 19.3482581 -33.34636645 19.34185126 -35.546875 19.33203125 C-37.06293335 19.34721298 -37.06293335 19.34721298 -38.60961914 19.36270142 C-46.2299015 19.23863003 -53.35713379 17.51191242 -58.85131836 11.88345337 C-61.72566989 8.28553207 -62.48487242 5.24550825 -63.109375 0.66796875 C-62.11679688 0.70277344 -61.12421875 0.73757813 -60.1015625 0.7734375 C-53.35105765 0.93432341 -47.18998652 0.89842585 -40.609375 -0.83203125 C-27.73262176 -3.94021307 -12.63460019 -4.02869737 0 0 Z " fill="#6E5550" transform="translate(278.109375,444.33203125)"/>
<path d="M0 0 C4.33743651 2.45159455 6.38323353 5.31988654 8 10 C8.90264288 17.18811949 8.21138622 23.01308161 4 29 C1.55328103 31.89981507 -0.71405429 32.29385918 -4.375 32.625 C-7.19595354 32.53669997 -8.58035887 32.31672703 -10.84765625 30.60546875 C-15.28020621 25.60659791 -17.50067581 20.93625032 -17.3203125 14.12109375 C-16.59076106 9.29003967 -13.9981491 5.47873941 -11.3125 1.5 C-7.67817893 -0.85739745 -4.19829495 -0.73601593 0 0 Z " fill="#474755" transform="translate(314,207)"/>
<path d="M0 0 C5.04322697 3.14012245 7.27583233 6.34856153 9 12 C9.70781164 18.37030476 8.59200898 22.67676047 5 28 C2.19844032 31.11284409 0.10559013 32.26152629 -4 32.5625 C-7.29708033 32.38243347 -8.02364856 31.9821322 -10.8125 29.875 C-15.15233273 24.17121984 -16.6110693 19.90993684 -16.42578125 12.76171875 C-15.76113051 8.45063548 -13.87988754 5.23683134 -11 2 C-7.29429256 -0.47047163 -4.29697538 -0.78126825 0 0 Z " fill="#474755" transform="translate(206,207)"/>
</svg>
